<svg xmlns="http://www.w3.org/2000/svg" viewBox="0 0 64 64" width="64" height="64">
  <circle cx="32" cy="32" r="30" fill="#FF6B00" stroke="#333333" stroke-width="1"/>
  <path d="M32 2 C45 2 56 13 56 26 C56 39 45 50 32 50 C19 50 8 39 8 26 C8 13 19 2 32 2 Z" fill="none" stroke="#333333" stroke-width="2"/>
  <path d="M2 32 C2 19 13 8 26 8 C39 8 50 19 50 32 C50 45 39 56 26 56 C13 56 2 45 2 32 Z" fill="none" stroke="#333333" stroke-width="2"/>
  <path d="M12 12 L52 52 M12 52 L52 12" fill="none" stroke="#333333" stroke-width="2"/>
</svg> 